<?xml version="1.0" encoding="utf-8"?>
<!-- Generator: Adobe Illustrator 21.1.0, SVG Export Plug-In . SVG Version: 6.00 Build 0)  -->
<svg version="1.1" id="Ebene_2" xmlns="http://www.w3.org/2000/svg" xmlns:xlink="http://www.w3.org/1999/xlink" x="0px" y="0px"
	 viewBox="0 0 595 842" style="enable-background:new 0 0 595 842;" xml:space="preserve">
<style type="text/css">
	.st0{fill:#FFFFFF;}
	.st1{fill:#E30613;}
	.st2{fill:#F8D200;}
</style>
<g>
	<rect x="193.3" y="336.5" class="st0" width="195.9" height="150"/>
	<g>
		<polygon class="st1" points="250.8,411.4 255.2,411.4 255.2,436.5 250.8,436.5 250.8,411.4 		"/>
		<polygon class="st2" points="250.8,436.5 255.2,436.5 255.2,461.5 250.8,461.5 250.8,436.5 		"/>
		<polygon points="250.8,386.5 255.2,386.5 255.2,411.5 250.8,411.5 250.8,386.5 		"/>
		<path d="M225.5,411.5L225.5,411.5L225.5,411.5z M225.5,411.5L225.5,411.5L225.5,411.5z M225.5,411.5L225.5,411.5L225.5,411.5z
			 M225.5,411.5L225.5,411.5L225.5,411.5z M237,390.8c0-1.4-1-2.6-1.4-2.9l-0.3,0.1c0.4,0.5,1.1,1.3,1.1,2.3c0,2.1-2.2,3.9-4.7,3.9
			c0,0.2,0,0.4,0,0.6c0,0.3,0,0.6-0.1,0.9C234.5,395.5,237,393.2,237,390.8L237,390.8z M233.1,407.9c-1.2,0-1.5-0.1-1.8-0.1
			c-0.2,0-0.4,0-0.4,0.3c0,0.2,0.2,0.5,0.4,0.6c0.3-0.3,0.7-0.3,1.3-0.3c0.3,0,0.7,0.1,0.9,0.1c0,0.2-0.1,0.4-0.1,0.7
			c0,0.2,0,0.4,0,0.6c0,0.7-0.1,1.1-0.4,1.4c0.1,0,0.2,0.1,0.3,0.1c0.5,0,0.6-0.2,0.6-1.4c0-0.4,0-0.7,0-0.8c0.6,0.5,1.3,1.4,1.3,2
			c0.2-0.1,0.5-0.4,0.5-0.7c0-0.4-0.7-1.1-1.5-1.9c0.1,0,0.4-0.1,0.6-0.1c0.6,0,1.1,0.1,1.4,0.4c0.1-0.1,0.2-0.5,0.2-0.7
			c0-0.4-0.2-0.3-0.4-0.3c-0.6,0-1.4,0.1-2,0.2c-0.2-0.3-1.5-2.1-1.9-3c-0.1,0-0.2-0.1-0.3-0.1c-0.3,0-0.4,0.2-0.5,0.5
			C232.1,406.2,232.8,407.2,233.1,407.9L233.1,407.9z M225.9,405.3c-0.1-0.3-0.2-0.5-0.5-0.5c-0.2,0-0.2,0-0.3,0.1
			c-0.3,1-1.7,2.7-1.9,3c-0.6-0.1-1.4-0.2-2-0.2c-0.2,0-0.4,0-0.4,0.3c0,0.2,0.1,0.6,0.2,0.7c0.3-0.3,0.8-0.4,1.4-0.4
			c0.2,0,0.5,0.1,0.6,0.1c-0.8,0.8-1.5,1.4-1.5,1.9c0,0.2,0.2,0.6,0.5,0.7c0-0.6,0.7-1.5,1.3-2c0,0.1,0,0.4,0,0.8
			c0,1.2,0.1,1.4,0.6,1.4c0.1,0,0.2,0,0.3-0.1c-0.2-0.3-0.4-0.7-0.4-1.4c0-0.2,0-0.4,0-0.6c0-0.3,0-0.5-0.1-0.7
			c0.2,0,0.6-0.1,0.9-0.1c0.6,0,1,0.1,1.3,0.3c0.2-0.2,0.4-0.4,0.4-0.6c0-0.3-0.2-0.3-0.4-0.3c-0.3,0-0.6,0.1-1.8,0.1
			C224.5,407.2,225.2,406.2,225.9,405.3L225.9,405.3z M220.9,390.3c0-1,0.7-1.8,1.1-2.3l-0.3-0.1c-0.4,0.3-1.4,1.4-1.4,2.9
			c0,2.5,2.5,4.8,5.4,4.8c0-0.3,0-0.6,0-0.9c0-0.2,0-0.4,0-0.6C223.1,394.2,220.9,392.3,220.9,390.3L220.9,390.3z M228.6,388.3
			c0.1-0.3,0.3-0.7,0.3-1c0-1.1-0.9-1.6-2.1-1.6c-0.6,0-0.9,0.2-0.9,0.4s0.2,0.6,0.3,0.8c0.2-0.1,0.6-0.2,0.9-0.2
			C227.8,386.7,228.4,387.6,228.6,388.3L228.6,388.3z M229.2,387c0.7,0.1,1.2-0.8,0.5-0.9c0.1,0.3-0.4,0.5-0.4,0.5s-0.2-0.4,0.1-0.6
			c-0.4-0.2-0.5,0-0.5,0.3C229,386.4,229.1,386.7,229.2,387L229.2,387z M231.4,393.1c0.1,0,0.2,0,0.3,0c2,0,3.9-1.3,3.9-2.9
			c0-0.9-0.4-1.5-0.9-2.2c-0.3,0-0.5,0.1-0.7,0.1c-0.9,0-1.4-0.5-1.4-1c0-0.4,0.3-0.7,0.9-0.7c0.8,0,2.3,0.8,3.9,0.8
			c-0.1,0.1-0.4,0.2-0.7,0.3c0.9,0.8,1.5,1.9,1.7,3l2.3,3.7c0.4,0.6,1.2,1.9,2.5,2.8c-1.5,0-2.5,0-3.8-2l-1.2-1.9
			c-0.1,0.2-0.2,0.5-0.3,0.7l2.4,3.8c0.4,0.6,1.2,1.9,2.5,2.8c-1.5,0-2.5,0-3.8-2l-2.1-3.3c-0.2,0.2-0.3,0.3-0.5,0.5l2.9,4.6
			c0.4,0.6,1.2,1.8,2.5,2.8c-1.5,0-2.5,0-3.8-2l-2.8-4.5c-0.2,0.1-0.4,0.2-0.6,0.3l3.4,5.5c0.4,0.6,1.2,1.8,2.5,2.8
			c-1.5,0-2.5,0-3.8-2l-3.5-5.7c-0.2,0.1-0.4,0.2-0.6,0.2l4,6.4c0.4,0.6,1.2,1.9,2.5,2.8c-1.5,0-2.5,0-3.8-2l-4.3-6.8l-0.1,0
			c-0.1,0.4-0.2,0.7-0.2,1.1c0,2.1,1.4,4,3.1,5.5c-0.1,0-0.3,0.1-0.5,0.1c-0.3,0-0.6,0-0.7,0c0.4,0.9,1.2,2,1.7,2.6
			c0.6-0.1,1.4-0.2,1.9-0.2c0.6,0,0.6,0.3,0.6,0.6c0,0.5-0.2,0.9-0.5,1.1c-0.1-0.3-0.3-0.6-1.3-0.6l-0.1,0c0.3,0.3,1.2,1.1,1.2,1.7
			c0,0.4-0.4,1-1,1c0-0.1,0-0.2,0-0.3c0-0.5-0.4-1.1-0.8-1.5c0,0.1,0,0.1,0,0.2c0,1.2-0.1,1.7-0.8,1.7c-0.4,0-0.6-0.2-0.7-0.3
			c0.5-0.4,0.5-0.8,0.5-1.4l0-0.6c0-0.1,0-0.3,0-0.5c-0.3,0-0.4,0-0.6,0c0,0-1.1-0.1-1.3,0.5c-0.3-0.3-0.7-0.6-0.7-1
			c0-0.3,0.1-0.6,0.7-0.6c0.2,0,0.8,0.1,1.4,0.1c-0.1-0.3-0.8-1.3-1.3-2c-0.1,0.3-0.2,0.6-0.5,0.8c0-0.4-0.3-1.8-1-2.6
			c-0.1,0.5-0.2,1.1-0.2,2.3c0,2.9,0.7,5,2.2,5.4c-0.2,0.3-0.6,0.6-1,0.6c-0.5,0-0.8-0.6-1.1-1.2c-0.2,0.4-0.6,1.5-1,1.5
			c-0.4,0-0.9-1-1-1.5c-0.3,0.6-0.6,1.2-1.1,1.2c-0.4,0-0.8-0.3-1-0.6c1.5-0.4,2.2-2.5,2.2-5.4c0-1.2-0.1-1.8-0.2-2.3
			c-0.7,0.8-0.9,2.2-1,2.6c-0.3-0.2-0.4-0.5-0.5-0.8c-0.6,0.7-1.2,1.6-1.3,2c0.5,0,1.2-0.1,1.4-0.1c0.5,0,0.7,0.3,0.7,0.6
			c0,0.4-0.4,0.8-0.7,1c-0.3-0.5-1.3-0.5-1.3-0.5c-0.2,0-0.3,0-0.6,0c0,0.1,0,0.3,0,0.5l0,0.6c0,0.7,0,1,0.5,1.4
			c-0.1,0.1-0.3,0.3-0.7,0.3c-0.7,0-0.8-0.5-0.8-1.7c0-0.1,0-0.1,0-0.2c-0.4,0.4-0.8,1-0.8,1.5c0,0.1,0,0.2,0,0.3c-0.6,0-1-0.6-1-1
			c0-0.6,0.9-1.4,1.2-1.7l-0.1,0c-1,0-1.2,0.3-1.3,0.6c-0.3-0.2-0.5-0.6-0.5-1.1c0-0.3,0.1-0.6,0.6-0.6c0.5,0,1.3,0.1,1.9,0.2
			c0.4-0.6,1.3-1.7,1.7-2.6c-0.2,0-0.4,0-0.7,0c-0.2,0-0.4,0-0.5-0.1c1.7-1.5,3.1-3.4,3.1-5.5c0-0.3-0.1-0.7-0.2-1.1l-0.1,0
			l-4.3,6.8c-1.3,2-2.3,2-3.8,2c1.2-1,2.1-2.2,2.5-2.8l4-6.4c-0.2-0.1-0.4-0.1-0.6-0.2l-3.5,5.7c-1.3,2-2.3,2-3.8,2
			c1.3-1,2.1-2.2,2.5-2.8l3.4-5.5c-0.2-0.1-0.4-0.2-0.6-0.3l-2.8,4.5c-1.3,2-2.3,2-3.8,2c1.3-1,2.1-2.2,2.5-2.8l2.9-4.6
			c-0.2-0.2-0.3-0.3-0.5-0.5l-2.1,3.3c-1.3,2-2.3,2-3.8,2c1.3-1,2.1-2.2,2.5-2.8l2.4-3.8c-0.1-0.2-0.2-0.5-0.3-0.7l-1.2,1.9
			c-1.3,2-2.3,2-3.8,2c1.3-1,2.1-2.2,2.5-2.8l2.3-3.7c0.2-1.2,0.8-2.2,1.7-3c-0.3-0.1-0.5-0.2-0.7-0.3c1.5,0,3-0.8,3.9-0.8
			c0.5,0,0.9,0.3,0.9,0.7c0,0.5-0.5,1-1.4,1c-0.2,0-0.5,0-0.7-0.1c-0.5,0.7-0.9,1.3-0.9,2.2c0,1.6,2,2.9,3.9,2.9c0.1,0,0.2,0,0.3,0
			c0.4-1.3,1.2-2.2,1.9-3c-0.8-0.3-1.7-1-1.7-1.4c0.1-0.1,1.6,0.4,1.8,0.5c0,0,0.1,0,0.1,0c0.2-0.1,0.3-0.3,0.3-0.4
			c-0.2,0-1.1-0.2-1.8-0.4c-0.5-0.2-0.8-0.5-0.8-0.6c0.2,0,0.8,0.3,1.7,0.3c0.3,0,0.4,0,0.7-0.1c-0.2-0.5-0.7-1-1.1-1
			c-0.2,0-0.6,0.1-1,0.3c-0.2-0.4-0.5-0.9-0.5-1.2c0-0.3,0.3-0.7,1.2-0.7c0.3,0,0.5,0,0.7,0.1c0.2,0,0.3,0.1,0.5,0.1
			c0,0,0-0.1,0-0.1c0-0.1,0.1-0.3,0.5-0.3c0.8,0,1.5,0.2,2.5,0.2c0.2,0,0.4,0,0.6-0.1c-0.1,0.2-0.3,0.5-0.6,0.7
			c0.1,0.2,0.5,0.7,0.5,1.5c0,1.3-0.8,2.4-0.8,3.7C230.7,392,231.3,392.7,231.4,393.1L231.4,393.1z"/>
		<path d="M267.6,423c0.1,2.3-0.8,2.7-1.5,2.7c-0.8,0-1.1-0.6-1.1-1.3C265.1,422.9,266.5,423,267.6,423L267.6,423z M267.7,426.5h1.3
			c-0.1-0.5-0.1-1.1-0.1-1.7v-3.4c0-1.2-0.5-2.1-2.3-2.1c-1.5,0-2.3,0.5-2.4,2.1h1.2c-0.1-0.7,0.3-1.3,1.1-1.3c1.2,0,1.2,1,1.2,2
			c-1.6,0-3.7,0.1-3.7,2.2c0,1.4,0.4,2.3,1.9,2.3c0.9,0,1.4-0.3,1.8-1.2h0V426.5L267.7,426.5z"/>
		<path d="M276,426.5v-4.9c0-1.4-0.4-2.3-1.9-2.3c-0.9,0-1.4,0.3-1.9,1h-0.1v-0.9h-1.2c0,0.5,0.1,1,0.1,1.5v5.6h1.1v-4.2
			c0-1,0.2-2.1,1.4-2.1c1,0,1.2,0.6,1.2,1.4v4.9H276L276,426.5z"/>
		<path d="M281.8,422.7c0,1.4,0,3-1.3,3c-1.4,0-1.4-1.5-1.4-2.6c0-1.9,0.2-2.9,1.4-2.9C281.7,420.3,281.8,421.8,281.8,422.7
			L281.8,422.7z M281.8,420.2L281.8,420.2c-0.4-0.6-0.9-0.9-1.6-0.9c-2.3,0-2.3,2-2.3,3.8c0,3.1,1.1,3.6,2.3,3.6
			c0.7,0,1.2-0.3,1.6-1h0v0.8h1.1v-10.1h-1.1V420.2L281.8,420.2z"/>
		<path d="M289.5,417.5h1.9c1,0,1.4,0.8,1.4,1.5c0,0.9-0.4,1.7-1.4,1.7h-1.9V417.5L289.5,417.5z M291,421.9c0.4,0,1.4,0.1,1.5,1.3
			c0.1,1.3,0,2.7,0.4,3.4h1.3c-0.2-0.6-0.3-2.2-0.3-2.6c-0.1-2-0.5-2.4-1.7-2.6v0c1.2-0.2,1.8-1.1,1.8-2.3c0-1.3-0.6-2.5-2.4-2.5
			h-3.5v10.1h1.3v-4.6H291L291,421.9z"/>
		<path d="M297,422.5c0-2,0.6-2.3,1.3-2.3c0.8,0,1.4,0.3,1.4,2.3H297L297,422.5z M301,423.4v-0.6c0-2.3-0.5-3.4-2.5-3.4
			c-2.4,0-2.7,1.7-2.7,3.8c0,3.1,1.2,3.6,2.7,3.6c1.5,0,2.4-0.7,2.5-2.3h-1.3c0,0.7-0.4,1.3-1.2,1.3c-0.9,0-1.4-0.4-1.4-2.4H301
			L301,423.4z"/>
		<path d="M307.5,424.5c0-2.2-3.5-2.1-3.5-3.4c0-0.6,0.5-1,1.1-1c0.7,0,1.1,0.4,1.1,1.1h1.3c0.1-1.4-1-2-2.2-2c-2,0-2.4,1.2-2.4,1.9
			c0,2.1,3.5,2.1,3.5,3.4c0,0.7-0.5,1.1-1.2,1.1c-1.2,0-1.2-1-1.2-1.4h-1.3c0,1.6,0.9,2.3,2.4,2.3
			C306.4,426.7,307.5,426.1,307.5,424.5L307.5,424.5z"/>
		<path d="M310.2,422.5c0-2,0.6-2.3,1.3-2.3c0.8,0,1.4,0.3,1.4,2.3H310.2L310.2,422.5z M314.2,423.4v-0.6c0-2.3-0.5-3.4-2.5-3.4
			c-2.5,0-2.7,1.7-2.7,3.8c0,3.1,1.2,3.6,2.7,3.6c1.5,0,2.4-0.7,2.5-2.3h-1.3c0,0.7-0.4,1.3-1.2,1.3c-0.9,0-1.4-0.4-1.4-2.4H314.2
			L314.2,423.4z"/>
		<path d="M319.7,423c0.1,2.3-0.8,2.7-1.5,2.7c-0.8,0-1.1-0.6-1.1-1.3C317.2,422.9,318.6,423,319.7,423L319.7,423z M319.8,426.5h1.3
			c-0.1-0.5-0.1-1.1-0.1-1.7v-3.4c0-1.2-0.5-2.1-2.3-2.1c-1.5,0-2.3,0.5-2.4,2.1h1.2c-0.1-0.7,0.3-1.3,1.1-1.3c1.2,0,1.2,1,1.2,2
			c-1.6,0-3.7,0.1-3.7,2.2c0,1.4,0.4,2.3,1.9,2.3c0.9,0,1.4-0.3,1.8-1.2h0V426.5L319.8,426.5z"/>
		<path d="M324.3,419.5h-1.1v7.1h1.1v-4.2c0-1,0.3-1.9,1.6-1.9c0.2,0,0.4,0,0.6,0.1v-1.2c-1.1,0-1.7,0.1-2.2,1.2h0V419.5
			L324.3,419.5z"/>
		<path d="M332.7,421.7c0.1-1.6-0.8-2.4-2.2-2.4c-2.4,0-2.7,1.7-2.7,3.8c0,3.1,1.2,3.6,2.7,3.6c0.8,0,2.3-0.5,2.2-2.5h-1.2
			c0,1.3-0.8,1.6-1,1.6c-1.2,0-1.5-0.8-1.5-3.1c0-1.9,0.6-2.4,1.5-2.4c0.4,0,1,0.3,1,1.5H332.7L332.7,421.7z"/>
		<path d="M339.8,426.5v-5c0-1.6-0.7-2.2-1.9-2.2c-0.9,0-1.5,0.2-1.9,1h-0.1v-3.9h-1.1v10.1h1.1v-4.2c0-1.2,0.3-2.1,1.4-2.1
			c1,0,1.3,0.6,1.3,1.5v4.8H339.8L339.8,426.5z"/>
		<path d="M266.3,410.7c-1.2,0-1.5-0.8-1.5-3.1c0-1.9,0.6-2.4,1.5-2.4c0.9,0,1.5,0.4,1.5,2.4C267.8,409.9,267.5,410.7,266.3,410.7
			L266.3,410.7z M266.3,411.7c1.5,0,2.7-0.4,2.7-3.6c0-2.1-0.2-3.8-2.7-3.8c-2.5,0-2.7,1.7-2.7,3.8
			C263.6,411.2,264.8,411.7,266.3,411.7L266.3,411.7z"/>
		<path d="M269.9,404.5v0.9h1.1v6.2h1.1v-6.2h1.4v-0.9h-1.4v-1.2c0-0.6,0.2-1.1,1.4-1v-0.8c-0.2,0-0.3,0-0.5,0c-1,0-2,0.3-2,1.7v1.4
			H269.9L269.9,404.5z"/>
		<polygon points="283.2,411.5 283.2,410.4 279.2,410.4 279.2,406.9 282.9,406.9 282.9,405.8 279.2,405.8 279.2,402.5 283.2,402.5 
			283.2,401.4 278,401.4 278,411.5 283.2,411.5 		"/>
		<path d="M288.6,407.7c0,1.4,0,3-1.3,3c-1.4,0-1.4-1.5-1.4-2.6c0-1.9,0.2-2.9,1.4-2.9C288.5,405.3,288.6,406.8,288.6,407.7
			L288.6,407.7z M288.6,405.2L288.6,405.2c-0.4-0.6-0.9-0.9-1.6-0.9c-2.3,0-2.3,2-2.3,3.8c0,3.1,1.1,3.6,2.3,3.6
			c0.7,0,1.2-0.3,1.6-1h0v0.8h1.1v-10.1h-1.1V405.2L288.6,405.2z"/>
		<path d="M295.6,409.1c0,1.2-0.8,1.6-1.4,1.6c-0.8,0-1.2-0.6-1.2-1.4v-4.9h-1.1v5.4c0,1.2,0.7,1.8,1.9,1.8c0.7,0,1.4-0.3,1.8-1h0
			v0.9h1.2c0-0.5-0.1-1-0.1-1.5v-5.6h-1.1V409.1L295.6,409.1z"/>
		<path d="M303.7,406.7c0.1-1.6-0.8-2.4-2.2-2.4c-2.5,0-2.7,1.7-2.7,3.8c0,3.1,1.2,3.6,2.7,3.6c0.8,0,2.3-0.5,2.2-2.5h-1.2
			c0,1.3-0.8,1.6-1,1.6c-1.2,0-1.5-0.8-1.5-3.1c0-1.9,0.6-2.4,1.5-2.4c0.4,0,1,0.3,1,1.5H303.7L303.7,406.7z"/>
		<path d="M309.4,408c0.1,2.3-0.8,2.7-1.5,2.7c-0.8,0-1.1-0.6-1.1-1.3C306.9,407.9,308.3,408,309.4,408L309.4,408z M309.5,411.5h1.3
			c-0.1-0.5-0.1-1.1-0.1-1.7v-3.4c0-1.2-0.5-2.1-2.3-2.1c-1.5,0-2.3,0.5-2.4,2.1h1.2c-0.1-0.7,0.3-1.3,1.1-1.3c1.2,0,1.2,1,1.2,2
			c-1.6,0-3.7,0.1-3.7,2.2c0,1.4,0.4,2.3,1.9,2.3c0.9,0,1.4-0.3,1.8-1.2h0V411.5L309.5,411.5z"/>
		<path d="M311.8,404.5v0.9h1.2v5c0,0.8,0.5,1.3,1.6,1.3c0.4,0,0.8-0.1,1.1-0.1v-0.9c-0.3,0-0.4,0.1-0.5,0.1c-1,0-1-0.6-1-1v-4.3
			h1.5v-0.9h-1.5v-1.9l-1.1,0.5v1.4H311.8L311.8,404.5z"/>
		<path d="M317.8,404.5h-1.1v7.1h1.1V404.5L317.8,404.5z M316.6,402.6h1.3v-1.2h-1.3V402.6L316.6,402.6z"/>
		<path d="M322.3,410.7c-1.2,0-1.5-0.8-1.5-3.1c0-1.9,0.6-2.4,1.5-2.4c0.9,0,1.5,0.4,1.5,2.4C323.8,409.9,323.5,410.7,322.3,410.7
			L322.3,410.7z M322.3,411.7c1.5,0,2.7-0.4,2.7-3.6c0-2.1-0.2-3.8-2.7-3.8c-2.5,0-2.7,1.7-2.7,3.8
			C319.6,411.2,320.8,411.7,322.3,411.7L322.3,411.7z"/>
		<path d="M331.8,411.5v-4.9c0-1.4-0.4-2.3-1.9-2.3c-0.9,0-1.4,0.3-1.9,1H328v-0.9h-1.2c0,0.5,0.1,1,0.1,1.5v5.6h1.1v-4.2
			c0-1,0.2-2.1,1.4-2.1c1,0,1.2,0.6,1.2,1.4v4.9H331.8L331.8,411.5z"/>
		<polygon points="265.3,396.5 265.3,391.9 268.9,391.9 268.9,390.8 265.3,390.8 265.3,387.5 269.1,387.5 269.1,386.4 264,386.4 
			264,396.5 265.3,396.5 		"/>
		<path d="M271.4,392.5c0-2,0.6-2.3,1.3-2.3c0.8,0,1.4,0.3,1.4,2.3H271.4L271.4,392.5z M275.3,393.4v-0.6c0-2.3-0.5-3.4-2.5-3.4
			c-2.4,0-2.7,1.7-2.7,3.8c0,3.1,1.2,3.6,2.7,3.6c1.5,0,2.5-0.7,2.5-2.3H274c0,0.7-0.4,1.3-1.2,1.3c-0.9,0-1.4-0.4-1.4-2.4H275.3
			L275.3,393.4z"/>
		<path d="M281,392.7c0,1.4,0,3-1.3,3c-1.4,0-1.4-1.5-1.4-2.6c0-1.9,0.2-2.9,1.4-2.9C280.9,390.3,281,391.8,281,392.7L281,392.7z
			 M281,390.2L281,390.2c-0.4-0.6-0.9-0.9-1.6-0.9c-2.3,0-2.3,2-2.3,3.8c0,3.1,1.1,3.6,2.3,3.6c0.7,0,1.2-0.3,1.6-1h0v0.8h1.1v-10.1
			H281V390.2L281,390.2z"/>
		<path d="M285.4,392.5c0-2,0.6-2.3,1.3-2.3c0.8,0,1.4,0.3,1.4,2.3H285.4L285.4,392.5z M289.3,393.4v-0.6c0-2.3-0.5-3.4-2.5-3.4
			c-2.4,0-2.7,1.7-2.7,3.8c0,3.1,1.2,3.6,2.7,3.6c1.5,0,2.5-0.7,2.5-2.3H288c0,0.7-0.4,1.3-1.2,1.3c-0.9,0-1.4-0.4-1.4-2.4H289.3
			L289.3,393.4z"/>
		<path d="M292.4,389.5h-1.1v7.1h1.1v-4.2c0-1,0.3-1.9,1.6-1.9c0.2,0,0.4,0,0.6,0.1v-1.2c-1.1,0-1.7,0.1-2.2,1.2h0V389.5
			L292.4,389.5z"/>
		<path d="M299.5,393c0.1,2.3-0.8,2.7-1.5,2.7c-0.8,0-1.1-0.6-1.1-1.3C296.9,392.9,298.4,393,299.5,393L299.5,393z M299.5,396.5h1.3
			c-0.1-0.5-0.1-1.1-0.1-1.7v-3.4c0-1.2-0.5-2.1-2.3-2.1c-1.5,0-2.3,0.5-2.4,2.1h1.2c-0.1-0.7,0.3-1.3,1.1-1.3c1.2,0,1.2,1,1.2,2
			c-1.6,0-3.7,0.1-3.7,2.2c0,1.4,0.4,2.3,1.9,2.3c0.9,0,1.4-0.3,1.8-1.2h0V396.5L299.5,396.5z"/>
		<polygon points="304,386.4 302.9,386.4 302.9,396.5 304,396.5 304,386.4 		"/>
		<polygon points="310.4,387.5 310.5,387.5 313.2,396.5 314.5,396.5 317.3,387.5 317.3,387.5 317.3,396.5 318.6,396.5 318.6,386.4 
			316.5,386.4 313.9,394.9 313.9,394.9 311.3,386.4 309.2,386.4 309.2,396.5 310.4,396.5 310.4,387.5 		"/>
		<path d="M321.9,389.5h-1.2v7.1h1.2V389.5L321.9,389.5z M320.7,387.6h1.3v-1.2h-1.3V387.6L320.7,387.6z"/>
		<path d="M328.8,396.5v-4.9c0-1.4-0.4-2.3-1.9-2.3c-0.9,0-1.4,0.3-1.9,1H325v-0.9h-1.2c0,0.5,0.1,1,0.1,1.5v5.6h1.1v-4.2
			c0-1,0.2-2.1,1.4-2.1c1,0,1.2,0.6,1.2,1.4v4.9H328.8L328.8,396.5z"/>
		<path d="M332,389.5h-1.1v7.1h1.1V389.5L332,389.5z M330.8,387.6h1.3v-1.2h-1.3V387.6L330.8,387.6z"/>
		<path d="M338.5,394.5c0-2.2-3.5-2.1-3.5-3.4c0-0.6,0.5-1,1.1-1c0.7,0,1.1,0.4,1.1,1.1h1.3c0.1-1.4-1-2-2.2-2c-2,0-2.4,1.2-2.4,1.9
			c0,2.1,3.5,2.1,3.5,3.4c0,0.7-0.5,1.1-1.2,1.1c-1.2,0-1.2-1-1.2-1.4h-1.3c0,1.6,0.9,2.3,2.4,2.3
			C337.5,396.7,338.5,396.1,338.5,394.5L338.5,394.5z"/>
		<path d="M339.1,389.5v0.9h1.2v5c0,0.8,0.5,1.3,1.6,1.3c0.4,0,0.8-0.1,1.1-0.1v-0.9c-0.3,0-0.4,0.1-0.5,0.1c-1,0-1-0.6-1-1v-4.3
			h1.5v-0.9h-1.5v-1.9l-1.1,0.5v1.4H339.1L339.1,389.5z"/>
		<path d="M345.3,389.5h-1.1v7.1h1.1v-4.2c0-1,0.3-1.9,1.6-1.9c0.2,0,0.4,0,0.6,0.1v-1.2c-1.1,0-1.7,0.1-2.2,1.2h0V389.5
			L345.3,389.5z"/>
		<polygon points="349.2,389.5 347.8,389.5 350.2,396.5 349.4,399.2 350.6,399.2 353.8,389.5 352.6,389.5 350.9,395.2 350.8,395.2 
			349.2,389.5 		"/>
		<g>
			<path d="M264.5,359.6v0.2c0,0.9,0.5,1.1,1.1,1.1c0.6,0,1.1-0.3,1.1-1c0-1.4-2.8-1.2-2.8-3.1c0-1.1,0.8-1.7,1.9-1.7
				c1.2,0,1.8,0.6,1.8,1.8h-0.8c0-0.7-0.2-1.1-1-1.1c-0.5,0-1,0.2-1,0.9c0,1.4,2.8,1.2,2.8,3.2c0,1.3-0.9,1.8-2,1.8
				c-1.9,0-1.9-1.4-1.8-2H264.5z"/>
			<path d="M268.8,361.5v-6.3h1.9c0.8,0,1.8,0.3,1.8,1.8c0,1.4-1.1,1.7-1.8,1.7h-1.1v2.8H268.8z M269.6,358h0.9
				c0.3,0,1.1-0.1,1.1-1.1c0-1-0.7-1.1-0.9-1.1h-1.1V358z"/>
			<path d="M273.6,359.2v-2.1c0-1.3,0.6-2.1,2-2.1c1.3,0,2,0.8,2,2.1v2.1c0,1.8-0.6,2.4-2,2.4C274.2,361.6,273.6,360.9,273.6,359.2z
				 M276.7,359.2v-2.1c0-1.3-0.9-1.4-1.2-1.4s-1.2,0-1.2,1.4v2.1c0,1.4,0.4,1.7,1.2,1.7C276.3,360.9,276.7,360.6,276.7,359.2z"/>
			<path d="M283.3,355.2v6.3h-1.1l-2.5-5.5h0v5.5H279v-6.3h1.1l2.5,5.4h0v-5.4H283.3z"/>
			<path d="M285.4,359.6v0.2c0,0.9,0.5,1.1,1.1,1.1c0.6,0,1.1-0.3,1.1-1c0-1.4-2.8-1.2-2.8-3.1c0-1.1,0.8-1.7,1.9-1.7
				c1.2,0,1.8,0.6,1.7,1.8h-0.8c0-0.7-0.2-1.1-1-1.1c-0.5,0-1,0.2-1,0.9c0,1.4,2.8,1.2,2.8,3.2c0,1.3-0.9,1.8-2,1.8
				c-1.9,0-1.9-1.4-1.8-2H285.4z"/>
			<path d="M289.6,359.2v-2.1c0-1.3,0.6-2.1,2-2.1c1.3,0,2,0.8,2,2.1v2.1c0,1.8-0.6,2.4-2,2.4C290.3,361.6,289.6,360.9,289.6,359.2z
				 M292.8,359.2v-2.1c0-1.3-0.9-1.4-1.2-1.4c-0.3,0-1.2,0-1.2,1.4v2.1c0,1.4,0.4,1.7,1.2,1.7C292.4,360.9,292.8,360.6,292.8,359.2z
				"/>
			<path d="M295.8,358.6v2.9H295v-6.3h2.2c1.1,0,1.5,0.8,1.5,1.6c0,0.7-0.4,1.3-1.2,1.4v0c0.7,0.1,1,0.4,1,1.6
				c0,0.3,0.1,1.3,0.2,1.7h-0.8c-0.2-0.4-0.2-1.3-0.2-2.1c-0.1-0.8-0.7-0.8-1-0.8H295.8z M295.8,357.9h1.2c0.6,0,0.9-0.5,0.9-1
				c0-0.5-0.2-1-0.8-1h-1.2V357.9z"/>
			<path d="M299.9,361.5v-6.3h3.3v0.7h-2.4v2h2.3v0.7h-2.3v2.2h2.5v0.7H299.9z"/>
			<path d="M304.3,355.2h1.9c0.8,0,1.4,0.3,1.7,1c0.3,0.5,0.3,1.8,0.3,2c0,1.3-0.1,2.1-0.4,2.5c-0.3,0.5-1,0.8-2.1,0.8h-1.5V355.2z
				 M305.1,360.8h0.8c1.1,0,1.5-0.4,1.5-1.9v-1.3c0-1.3-0.4-1.8-1.2-1.8h-1.1V360.8z"/>
			<path d="M311.6,361.5v-6.3h2.1c0.9,0,1.2,0.3,1.4,0.6c0.2,0.3,0.3,0.7,0.3,0.8c0,0.8-0.3,1.3-1.1,1.5v0c0.9,0.1,1.3,0.6,1.3,1.5
				c0,1.6-1.2,1.8-1.9,1.8H311.6z M312.4,357.8h1.2c0.6,0,0.9-0.4,0.9-1c0-0.5-0.3-1-1-1h-1.1V357.8z M312.4,360.8h1.1
				c0.9,0,1.2-0.6,1.2-1.1c0-1-0.6-1.2-1.4-1.2h-0.9V360.8z"/>
			<path d="M319.6,355.2h0.8l-1.7,3.9v2.4h-0.8v-2.4l-1.7-3.9h0.9l1.2,3.1L319.6,355.2z"/>
			<path d="M326.7,355.2v0.7h-1.7v5.6h-0.8v-5.6h-1.7v-0.7H326.7z"/>
			<path d="M327.6,361.5v-6.3h0.8v2.7h2.2v-2.7h0.8v6.3h-0.8v-2.9h-2.2v2.9H327.6z"/>
			<path d="M332.9,361.5v-6.3h3.3v0.7h-2.5v2h2.3v0.7h-2.3v2.2h2.5v0.7H332.9z"/>
		</g>
	</g>
</g>
</svg>
