<?xml version="1.0" encoding="utf-8"?>
<!-- Generator: Adobe Illustrator 19.2.1, SVG Export Plug-In . SVG Version: 6.00 Build 0)  -->
<svg version="1.1" id="layer" xmlns="http://www.w3.org/2000/svg" xmlns:xlink="http://www.w3.org/1999/xlink" x="0px" y="0px"
	 viewBox="0 0 652 652" style="enable-background:new 0 0 652 652;" xml:space="preserve">
<style type="text/css">
	.st0{fill:#0047B4;}
	.st1{fill-rule:evenodd;clip-rule:evenodd;fill:#0047B4;}
	.st2{fill-rule:evenodd;clip-rule:evenodd;}
</style>
<g>
	<polygon class="st0" points="302.5,343.6 300.9,343.6 299.7,343.6 299.7,358.2 302.5,358.2 	"/>
	<path class="st0" d="M318,343.6h-2.7v4.5c0,1.8,0,4.4,0.2,5.9c-0.5-1.1-1.1-2.3-1.8-3.4l-4.1-7h-3.7v14.6h2.7V353
		c0-1.8,0-4.1-0.1-5.3c0.4,1,0.9,2,1.6,3.1l4.3,7.4h3.6V343.6z"/>
	<polygon class="st0" points="335,343.6 324.6,343.6 324.6,346 328.4,346 328.4,358.2 331.2,358.2 331.2,346 335,346 	"/>
	<polygon class="st0" points="348.8,343.6 346,343.6 346,349.4 339.8,349.4 339.8,343.6 337,343.6 337,358.2 339.8,358.2 
		339.8,351.8 346,351.8 346,358.2 348.8,358.2 	"/>
	<polygon class="st0" points="360.5,355.8 355.4,355.8 355.4,351.8 360.3,351.8 360.3,349.5 355.4,349.5 355.4,345.9 360.5,345.9 
		360.5,343.6 352.6,343.6 352.6,358.2 360.5,358.2 	"/>
	<polygon class="st0" points="402.9,355.7 398.2,355.7 398.2,343.6 395.4,343.6 395.4,358.2 402.9,358.2 	"/>
	<path class="st0" d="M419.6,343.6h-3.3l-2.5,7.6c-0.4,1.1-0.6,1.9-0.8,3h0c-0.2-1-0.5-2-0.8-3.1l-2.4-7.5h-3.3l-2.2,14.6h2.9
		l0.8-6.7c0.2-1.3,0.3-2.4,0.4-3.7h0c0.2,1.2,0.5,2.5,0.9,3.7l2.2,6.8h2.8l2.3-7.3c0.4-1.1,0.6-2.2,0.8-3.1h0c0.1,1,0.2,2.1,0.4,3.5
		l1,7h3L419.6,343.6z"/>
	<path class="st1" d="M449.6,350.9c0,3.5-2,5-3.9,5c-2.6,0-3.8-2-3.8-5.1c0-3.3,1.9-4.9,3.9-4.9
		C448.2,345.8,449.6,347.6,449.6,350.9 M452.6,350.7c0-5-2.8-7.3-6.6-7.3c-3.9,0-7.1,2.9-7.1,7.7c0,4.5,2.2,7.4,6.6,7.4
		C449.5,358.4,452.6,355.5,452.6,350.7"/>
	<path class="st0" d="M483.4,355.6h-3.2c-1.8,0-2.8,0-3.2,0c0.3-0.4,0.5-0.7,0.7-1l5.6-8.8v-2.2h-9.4v2.5h3.4c1.5,0,2.1,0,2.7,0
		c-0.4,0.5-0.7,0.9-1,1.4l-5.3,8.6v2.2h9.7V355.6z"/>
	<path class="st1" d="M494.4,353l1.3-3.7c0.3-0.8,0.5-1.7,0.7-2.4h0c0.2,0.8,0.4,1.5,0.7,2.3l1.4,3.8H494.4z M498.1,343.6h-3.2
		l-5.1,14.6h2.8l1-3h5.5l1,3h3.1L498.1,343.6z"/>
	<path class="st0" d="M513.7,353.6c0-4.6-6.1-3.6-6.1-6.2c0-1,0.8-1.8,2.4-1.8c0.9,0,1.8,0.1,2.6,0.4l0.1-2.5
		c-0.9-0.2-1.8-0.3-2.6-0.3c-3.5,0-5.6,1.8-5.6,4.4c0,4.8,6.1,3.5,6.1,6.3c0,1.3-1.1,1.9-2.5,1.9c-1.1,0-2.2-0.2-3.1-0.5l-0.2,2.6
		c0.9,0.2,2,0.3,3,0.3C511.5,358.4,513.7,356.4,513.7,353.6"/>
	<path class="st0" d="M552.8,355.2c-0.8,0.3-2,0.6-2.8,0.6c-2.9,0-4.3-1.8-4.3-5c0-2.8,1.3-4.9,4.1-4.9c1,0,2,0.2,2.9,0.4l0.3-2.6
		c-1-0.3-2.1-0.4-3.1-0.4c-4.9,0-7.3,3.3-7.3,7.9c0,3.6,1.6,7,6.8,7c1.4,0,2.7-0.3,3.8-0.7L552.8,355.2z"/>
	<path d="M311.6,330.5c-0.9,0.4-2.4,0.8-3.5,0.8c-3.7,0-5.3-2.2-5.3-6.2c0-3.6,1.7-6.1,5.1-6.1c1.2,0,2.5,0.2,3.7,0.5l0.4-3.2
		c-1.2-0.3-2.6-0.5-3.9-0.5c-6.1,0-9.2,4.1-9.2,9.9c0,4.6,2.1,8.8,8.5,8.8c1.7,0,3.4-0.3,4.7-0.8L311.6,330.5z"/>
	<path d="M442.1,328.6c0-5.7-7.7-4.5-7.7-7.8c0-1.3,1-2.2,3.1-2.2c1.1,0,2.2,0.2,3.3,0.5l0.2-3.1c-1.1-0.2-2.3-0.3-3.3-0.3
		c-4.4,0-7,2.3-7,5.5c0,6,7.7,4.4,7.7,7.9c0,1.7-1.4,2.4-3.2,2.4c-1.3,0-2.8-0.3-3.8-0.6l-0.2,3.3c1.1,0.3,2.4,0.4,3.7,0.4
		C439.3,334.5,442.1,332,442.1,328.6"/>
	<polygon points="521.6,315.9 518.1,315.9 518.1,323.3 510.3,323.3 510.3,315.9 506.8,315.9 506.8,334.3 510.3,334.3 510.3,326.3 
		518.1,326.3 518.1,334.3 521.6,334.3 	"/>
	<polygon points="591.4,315.9 578.4,315.9 578.4,318.9 583.1,318.9 583.1,334.3 586.6,334.3 586.6,318.9 591.4,318.9 	"/>
	<path d="M309,287.9c-6.3,0-10.3,4.1-10.3,9.9c0,5.6,3.4,9,9.3,9c2.2,0,4.5-0.4,6.3-1.1v-8.7h-3.5v6.4c-0.7,0.2-1.5,0.3-2.3,0.3
		c-3.7,0-5.8-2.3-5.8-6.2c0-4.1,2.6-6.4,6.2-6.4c1.7,0,3.4,0.4,4.9,0.9l0.5-3.3C314.2,288.7,310.9,287.9,309,287.9"/>
	<polygon points="328.1,303.5 321.7,303.5 321.7,298.5 327.8,298.5 327.8,295.7 321.7,295.7 321.7,291.2 328.1,291.2 328.1,288.2 
		318.2,288.2 318.2,306.5 328.1,306.5 	"/>
	<path class="st2" d="M339.9,293.6c0,1.7-1.3,2.8-3.4,2.8c-0.6,0-1,0-1.3-0.1V291c0.4-0.1,0.9-0.1,1.4-0.1
		C338.9,291,339.9,291.8,339.9,293.6 M340.5,300.4c-0.5-0.6-1-1.3-1.5-2c2.8-0.4,4.7-2.4,4.7-5.1c0-3.7-2.6-5.2-6.6-5.2
		c-2.1,0-3.8,0-5.3,0.1v18.3h3.5v-7.6h0.1l5.1,7.6h4.4L340.5,300.4z"/>
	<path d="M365.6,288.2h-4.1l-3.1,9.5c-0.5,1.4-0.8,2.4-1,3.8h-0.1c-0.2-1.3-0.6-2.5-1-3.9l-3.1-9.4H349l-2.8,18.3h3.6l1-8.4
		c0.2-1.6,0.4-3,0.5-4.7h0.1c0.2,1.5,0.7,3.1,1.2,4.6l2.8,8.5h3.5l2.9-9.2c0.5-1.4,0.8-2.7,1-3.9h0.1c0.1,1.3,0.3,2.6,0.6,4.4
		l1.3,8.7h3.7L365.6,288.2z"/>
	<path class="st2" d="M375.3,300l1.7-4.7c0.4-1.1,0.6-2.1,0.9-3.1h0c0.2,1,0.5,1.9,0.8,2.9l1.7,4.8H375.3z M380,288.2h-4l-6.4,18.3
		h3.6l1.3-3.7h6.9l1.3,3.7h3.9L380,288.2z"/>
	<path d="M403.8,288.2h-3.4v5.7c0,2.3,0.1,5.5,0.2,7.4c-0.7-1.4-1.4-2.9-2.3-4.3l-5.1-8.7h-4.6v18.3h3.4V300c0-2.2-0.1-5.1-0.2-6.6
		c0.5,1.2,1.2,2.5,2,3.9l5.4,9.3h4.6V288.2z"/>
	<path class="st1" d="M79.9,358.3H46.3c-0.1,0-26.3-1.1-26.1-27.1c0.3-31,40.2-24.9,40.2-24.9v-18.5h19.4V358.3z M60.5,342.9
		c0,0-21.6,5.8-21.6-10.8c0-17,21.6-10.9,21.6-10.9V342.9z"/>
	<path class="st0" d="M243.7,345.5c0-7.4,6-13.4,13.4-13.4c7.4,0,13.4,6,13.4,13.4c0,7.4-6,13.4-13.4,13.4
		C249.7,358.8,243.7,352.8,243.7,345.5"/>
	<polygon class="st0" points="217.1,344.7 239.9,344.7 239.9,358.3 186.6,358.3 211.1,320 188.3,320 188.3,305.8 239.9,305.8 	"/>
	<polygon class="st0" points="124,358.3 103.4,335.2 103.4,358.3 83.6,358.3 83.6,287.8 103.4,287.8 103.4,322.9 120.2,305.8 
		145,305.8 123.1,328.2 149.3,358.3 	"/>
	<path class="st0" d="M184.8,305.8c0,0-9,0-9,0c0,0,0.1-7.2,9.2-6.8v-10.4c-28.8-8.2-29.6,17.2-29.6,17.2l-5.5,0
		c0,0-13.7,14.2-13.7,14.2h18.7l0,38.3h20.3c0,0,0-38.3,0-38.3l9.6,0V305.8z"/>
	<polygon points="377,331.2 370.6,331.2 370.6,326.3 376.7,326.3 376.7,323.4 370.6,323.4 370.6,318.9 377,318.9 377,315.9 
		367,315.9 367,334.3 377,334.3 	"/>
	<polygon points="427.9,331.2 421.4,331.2 421.4,326.3 427.5,326.3 427.5,323.4 421.4,323.4 421.4,318.9 427.9,318.9 427.9,315.9 
		417.9,315.9 417.9,334.2 427.9,334.2 	"/>
	<polygon points="455.2,331.2 448.8,331.2 448.8,326.3 454.9,326.3 454.9,323.4 448.8,323.4 448.8,318.9 455.2,318.9 455.2,315.9 
		445.3,315.9 445.3,334.2 455.2,334.2 	"/>
	<polygon points="557.3,331.2 550.9,331.2 550.9,326.3 557,326.3 557,323.4 550.9,323.4 550.9,318.9 557.3,318.9 557.3,315.9 
		547.3,315.9 547.3,334.3 557.3,334.3 	"/>
	<polygon points="603.5,331.2 597.1,331.2 597.1,326.3 603.2,326.3 603.2,323.4 597.1,323.4 597.1,318.9 603.5,318.9 603.5,315.9 
		593.6,315.9 593.6,334.3 603.5,334.3 	"/>
	<path class="st2" d="M388.8,321.3c0,1.7-1.3,2.8-3.4,2.8c-0.6,0-1,0-1.3-0.1v-5.3c0.4-0.1,0.9-0.1,1.4-0.1
		C387.7,318.7,388.8,319.6,388.8,321.3 M389.3,328.1c-0.5-0.6-1-1.3-1.5-2c2.8-0.4,4.7-2.4,4.7-5.1c0-3.7-2.6-5.2-6.6-5.2
		c-2.1,0-3.8,0-5.3,0.1v18.3h3.5v-7.6h0.1l5.1,7.6h4.4L389.3,328.1z"/>
	<path class="st2" d="M410.4,321.3c0,1.7-1.3,2.8-3.4,2.8c-0.6,0-1,0-1.3-0.1v-5.3c0.4-0.1,0.9-0.1,1.4-0.1
		C409.3,318.7,410.4,319.6,410.4,321.3 M410.9,328.1c-0.5-0.6-1-1.3-1.5-2c2.8-0.4,4.7-2.4,4.7-5.1c0-3.7-2.6-5.2-6.6-5.2
		c-2.1,0-3.8,0-5.3,0.1v18.3h3.5v-7.6h0.1l5.1,7.6h4.4L410.9,328.1z"/>
	<path class="st2" d="M484,321.3c0,1.7-1.3,2.8-3.4,2.8c-0.5,0-1,0-1.3-0.1v-5.3c0.4-0.1,0.9-0.1,1.4-0.1
		C482.9,318.7,484,319.6,484,321.3 M484.5,328.1c-0.5-0.6-1-1.3-1.5-2c2.8-0.4,4.7-2.4,4.7-5.1c0-3.7-2.6-5.2-6.6-5.2
		c-2.1,0-3.8,0-5.3,0.1v18.3h3.5v-7.6h0.1l5.1,7.6h4.4L484.5,328.1z"/>
	<path class="st2" d="M615.3,321.3c0,1.7-1.3,2.8-3.4,2.8c-0.5,0-1,0-1.3-0.1v-5.3c0.4-0.1,0.9-0.1,1.4-0.1
		C614.2,318.7,615.3,319.6,615.3,321.3 M615.8,328.1c-0.5-0.6-1-1.3-1.5-2c2.8-0.4,4.7-2.4,4.7-5.1c0-3.7-2.6-5.2-6.6-5.2
		c-2.1,0-3.8,0-5.3,0.1v18.3h3.5v-7.6h0.1l5.1,7.6h4.4L615.8,328.1z"/>
	<path class="st2" d="M462.5,327.7l1.7-4.7c0.4-1.1,0.6-2.1,0.9-3.1h0c0.2,1,0.5,1.9,0.8,2.9l1.7,4.8H462.5z M467.1,315.9h-4
		l-6.4,18.3h3.6l1.3-3.7h6.9l1.3,3.7h3.9L467.1,315.9z"/>
	<path d="M347.4,315.9H344v5.7c0,2.3,0.1,5.5,0.2,7.4c-0.7-1.4-1.4-2.9-2.3-4.3l-5.1-8.7h-4.6v18.3h3.4v-6.5c0-2.2-0.1-5.1-0.2-6.6
		c0.5,1.2,1.2,2.5,2,3.9l5.4,9.3h4.6V315.9z"/>
	<path d="M576,315.9h-3.4v5.7c0,2.3,0.1,5.5,0.2,7.4c-0.7-1.4-1.4-2.9-2.3-4.3l-5.1-8.7h-4.6v18.3h3.4v-6.5c0-2.2-0.1-5.1-0.2-6.6
		c0.5,1.2,1.2,2.5,2,3.9l5.4,9.3h4.6V315.9z"/>
	<path d="M363.2,330.5c-0.9,0.4-2.4,0.8-3.5,0.8c-3.7,0-5.3-2.2-5.3-6.2c0-3.6,1.7-6.1,5.1-6.1c1.2,0,2.5,0.2,3.7,0.5l0.4-3.2
		c-1.2-0.3-2.6-0.5-3.9-0.5c-6.1,0-9.2,4.1-9.2,9.9c0,4.6,2.1,8.8,8.5,8.8c1.7,0,3.4-0.3,4.7-0.8L363.2,330.5z"/>
	<path d="M503,330.5c-0.9,0.4-2.4,0.8-3.5,0.8c-3.7,0-5.3-2.2-5.3-6.2c0-3.6,1.7-6.1,5.1-6.1c1.2,0,2.5,0.2,3.7,0.5l0.4-3.2
		c-1.2-0.3-2.6-0.5-3.9-0.5c-6.1,0-9.2,4.1-9.2,9.9c0,4.6,2.1,8.8,8.5,8.8c1.7,0,3.4-0.3,4.7-0.8L503,330.5z"/>
	<path d="M543.5,330.5c-0.9,0.4-2.4,0.8-3.5,0.8c-3.7,0-5.3-2.2-5.3-6.2c0-3.6,1.7-6.1,5.1-6.1c1.2,0,2.5,0.2,3.7,0.5l0.4-3.2
		c-1.2-0.3-2.6-0.5-3.9-0.5c-6.1,0-9.2,4.1-9.2,9.9c0,4.6,2.1,8.8,8.5,8.8c1.7,0,3.4-0.3,4.7-0.8L543.5,330.5z"/>
	<path class="st2" d="M318.9,327.7l1.7-4.7c0.4-1.1,0.6-2.1,0.9-3.1h0c0.2,1,0.5,1.9,0.8,2.9l1.7,4.8H318.9z M323.6,315.9h-4
		l-6.4,18.3h3.6l1.3-3.7h6.9l1.3,3.7h3.9L323.6,315.9z"/>
	<polygon class="st0" points="558.9,343.6 557.3,343.6 556.1,343.6 556.1,358.2 558.9,358.2 	"/>
	<polygon class="st0" points="588.6,343.6 587,343.6 585.8,343.6 585.8,358.2 588.6,358.2 	"/>
	<path class="st0" d="M619.6,343.6h-2.7v4.5c0,1.8,0,4.4,0.2,5.9c-0.5-1.1-1.1-2.3-1.8-3.4l-4.1-7h-3.7v14.6h2.7V353
		c0-1.8,0-4.1-0.1-5.3c0.4,1,0.9,2,1.6,3.1l4.3,7.4h3.6V343.6z"/>
	<polygon class="st0" points="472.3,343.6 461.9,343.6 461.9,346 465.7,346 465.7,358.2 468.5,358.2 468.5,346 472.3,346 	"/>
	<polygon class="st0" points="583.8,343.6 573.4,343.6 573.4,346 577.2,346 577.2,358.2 580,358.2 580,346 583.8,346 	"/>
	<polygon class="st0" points="380.5,343.6 377.7,343.6 377.7,349.4 371.5,349.4 371.5,343.6 368.7,343.6 368.7,358.2 371.5,358.2 
		371.5,351.8 377.7,351.8 377.7,358.2 380.5,358.2 	"/>
	<polygon class="st0" points="436.2,343.6 433.4,343.6 433.4,349.4 427.2,349.4 427.2,343.6 424.4,343.6 424.4,358.2 427.2,358.2 
		427.2,351.8 433.4,351.8 433.4,358.2 436.2,358.2 	"/>
	<polygon class="st0" points="392.3,355.8 387.1,355.8 387.1,351.8 392,351.8 392,349.5 387.1,349.5 387.1,345.9 392.3,345.9 
		392.3,343.6 384.3,343.6 384.3,358.2 392.3,358.2 	"/>
	<polygon class="st0" points="462.8,355.7 458,355.7 458,343.6 455.2,343.6 455.2,358.2 462.8,358.2 	"/>
	<path class="st1" d="M537.6,350.9c0,3.5-2,5-3.9,5c-2.6,0-3.8-2-3.8-5.1c0-3.3,1.9-4.9,3.9-4.9
		C536.3,345.8,537.6,347.6,537.6,350.9 M540.7,350.7c0-5-2.8-7.3-6.6-7.3c-3.9,0-7.1,2.9-7.1,7.7c0,4.5,2.2,7.4,6.6,7.4
		C537.5,358.4,540.7,355.5,540.7,350.7"/>
	<path class="st1" d="M601.9,350.9c0,3.5-2,5-3.9,5c-2.6,0-3.8-2-3.8-5.1c0-3.3,1.9-4.9,3.9-4.9
		C600.6,345.8,601.9,347.6,601.9,350.9 M605,350.7c0-5-2.8-7.3-6.6-7.3c-3.9,0-7.1,2.9-7.1,7.7c0,4.5,2.2,7.4,6.6,7.4
		C601.8,358.4,605,355.5,605,350.7"/>
	<path class="st1" d="M565.3,353l1.3-3.7c0.3-0.8,0.5-1.7,0.7-2.4h0c0.2,0.8,0.4,1.5,0.7,2.3l1.4,3.8H565.3z M569.1,343.6h-3.2
		l-5.1,14.6h2.8l1-3h5.5l1,3h3.1L569.1,343.6z"/>
	<path class="st0" d="M524.9,353.6c0-4.6-6.1-3.6-6.1-6.2c0-1,0.8-1.8,2.4-1.8c0.9,0,1.8,0.1,2.6,0.4l0.1-2.5
		c-0.9-0.2-1.8-0.3-2.6-0.3c-3.5,0-5.6,1.8-5.6,4.4c0,4.8,6.1,3.5,6.1,6.3c0,1.3-1.1,1.9-2.5,1.9c-1.1,0-2.2-0.2-3.1-0.5l-0.2,2.6
		c0.9,0.2,2,0.3,3,0.3C522.7,358.4,524.9,356.4,524.9,353.6"/>
</g>
</svg>
